# xmcd
#
# Track frame offsets:
# 150
# 16291
# 28641
# 43575
# 61000
# 72457
# 85391
# 93854
# 104901
# 116786
# 133947
# 148053
# 166038
# 178163
# 190376
# 207896
# 222237
# 235842
# 249067
# 261475
# 277997
#
# Disc length: 3890 seconds
#
#
# Revision: 0
# Processed by: cddbd v1.5.2PL0 Copyright (c) Steve Scherf et al.
# Submitted via: FreeRIP 2.91 
#
DISCID=380f3015
DTITLE=Mr. President - Memphis
DYEAR=1900
DGENRE=Country
TTITLE0=Okie Dokie
TTITLE1=Bliv her i nat
TTITLE2=Gi' mig piger over 30
TTITLE3=Roll on big mama
TTITLE4=Ud på græs
TTITLE5=Brandenburg, Lille og jeg
TTITLE6=Her i vores hus
TTITLE7=Når først den ruller
TTITLE8=Far's truckerblod
TTITLE9=Født for sent
TTITLE10=Hvorfor sku' du ændre dig
TTITLE11=Hvor blev alle de gamle af
TTITLE12=Harald's super service
TTITLE13=Den gamle drøm om frihed
TTITLE14=Ingen slingrer i valsen
TTITLE15=Dit sidste brev
TTITLE16=Langt hjem til Esbjerg
TTITLE17=Hvis du er glad for din søn
TTITLE18=Far's pige
TTITLE19=Skynd dig hjem
TTITLE20=Unknown
EXTD=
EXTT0=
EXTT1=
EXTT2=
EXTT3=
EXTT4=
EXTT5=
EXTT6=
EXTT7=
EXTT8=
EXTT9=
EXTT10=
EXTT11=
EXTT12=
EXTT13=
EXTT14=
EXTT15=
EXTT16=
EXTT17=
EXTT18=
EXTT19=
EXTT20=
PLAYORDER=
